<svg width="20" height="20" viewBox="0 0 20 20" fill="none" xmlns="http://www.w3.org/2000/svg">
<path d="M9.99999 5.83335C7.69999 5.83335 5.83332 7.70002 5.83332 10C5.83332 12.3 7.69999 14.1667 9.99999 14.1667C12.3 14.1667 14.1667 12.3 14.1667 10C14.1667 7.70002 12.3 5.83335 9.99999 5.83335ZM9.99999 1.66669C5.39999 1.66669 1.66666 5.40002 1.66666 10C1.66666 14.6 5.39999 18.3334 9.99999 18.3334C14.6 18.3334 18.3333 14.6 18.3333 10C18.3333 5.40002 14.6 1.66669 9.99999 1.66669ZM9.99999 16.6667C6.31666 16.6667 3.33332 13.6834 3.33332 10C3.33332 6.31669 6.31666 3.33335 9.99999 3.33335C13.6833 3.33335 16.6667 6.31669 16.6667 10C16.6667 13.6834 13.6833 16.6667 9.99999 16.6667Z" fill="#334D43"/>
</svg>
