<svg width="25" height="24" viewBox="0 0 25 24" fill="none" xmlns="http://www.w3.org/2000/svg">
<path d="M16.1667 15C15.8833 15 15.646 14.904 15.4547 14.712C15.2633 14.52 15.1673 14.2827 15.1667 14V10C15.1667 9.71667 15.2627 9.47933 15.4547 9.288C15.6467 9.09667 15.884 9.00067 16.1667 9H18.6667C18.95 9 19.1877 9.096 19.3797 9.288C19.5717 9.48 19.6673 9.71733 19.6667 10V14C19.6667 14.2833 19.5707 14.521 19.3787 14.713C19.1867 14.905 18.9493 15.0007 18.6667 15H16.1667ZM16.6667 13.5H18.1667V10.5H16.6667V13.5ZM5.66666 15V12.5C5.66666 12.2167 5.76266 11.9793 5.95466 11.788C6.14666 11.5967 6.38399 11.5007 6.66666 11.5H8.66666V10.5H5.66666V9H9.16666C9.44999 9 9.68766 9.096 9.87966 9.288C10.0717 9.48 10.1673 9.71733 10.1667 10V11.5C10.1667 11.7833 10.0707 12.021 9.87866 12.213C9.68666 12.405 9.44932 12.5007 9.16666 12.5H7.16666V13.5H10.1667V15H5.66666ZM11.9167 11V9.5H13.4167V11H11.9167ZM11.9167 14.5V13H13.4167V14.5H11.9167ZM4.66666 20C4.11666 20 3.64599 19.8043 3.25466 19.413C2.86332 19.0217 2.66732 18.5507 2.66666 18V6C2.66666 5.45 2.86266 4.97933 3.25466 4.588C3.64666 4.19667 4.11732 4.00067 4.66666 4H7.66666V2H9.66666V4H15.6667V2H17.6667V4H20.6667C21.2167 4 21.6877 4.196 22.0797 4.588C22.4717 4.98 22.6673 5.45067 22.6667 6V18C22.6667 18.55 22.471 19.021 22.0797 19.413C21.6883 19.805 21.2173 20.0007 20.6667 20H4.66666ZM4.66666 18H11.9167V16.5H13.4167V18H20.6667V6H13.4167V7.5H11.9167V6H4.66666V18Z" fill="#4D7465"/>
</svg>
