<svg width="25" height="24" viewBox="0 0 25 24" fill="none" xmlns="http://www.w3.org/2000/svg">
<path fill-rule="evenodd" clip-rule="evenodd" d="M7.43231 1.25H17.2333C18.2503 1.25 18.9503 1.25 19.5393 1.454C20.0898 1.64841 20.588 1.96717 20.9953 2.38551C21.4025 2.80384 21.7078 3.31047 21.8873 3.866C22.0833 4.463 22.0823 5.173 22.0823 6.226V20.374C22.0823 21.84 20.3553 22.712 19.2183 21.671C19.1818 21.6361 19.1333 21.6166 19.0828 21.6166C19.0323 21.6166 18.9838 21.6361 18.9473 21.671L18.4633 22.113C17.5353 22.963 16.1293 22.963 15.2013 22.113C15.0333 21.9562 14.8121 21.8689 14.5823 21.8689C14.3525 21.8689 14.1313 21.9562 13.9633 22.113C13.0353 22.963 11.6293 22.963 10.7013 22.113C10.5333 21.9562 10.3121 21.8689 10.0823 21.8689C9.8525 21.8689 9.63127 21.9562 9.46331 22.113C8.53531 22.963 7.12931 22.963 6.20131 22.113L5.71831 21.671C5.68178 21.6358 5.63303 21.6161 5.58231 21.6161C5.53158 21.6161 5.48283 21.6358 5.44631 21.671C4.30931 22.711 2.58231 21.84 2.58231 20.374V6.227C2.58231 5.173 2.58231 4.463 2.77731 3.866C2.95678 3.31044 3.26201 2.80377 3.66925 2.38543C4.07649 1.96708 4.57477 1.64834 5.12531 1.454C5.71531 1.249 6.41531 1.25 7.43231 1.25ZM7.57731 2.75C6.35631 2.75 5.93531 2.76 5.61731 2.871C5.28504 2.9898 4.98463 3.18359 4.7394 3.43732C4.49417 3.69105 4.31073 3.99788 4.20331 4.334C4.09231 4.672 4.08331 5.118 4.08331 6.37V20.374C4.08331 20.494 4.14231 20.566 4.21731 20.601C4.25153 20.6173 4.28967 20.6235 4.32731 20.619C4.3679 20.6125 4.40537 20.5932 4.43431 20.564C4.74722 20.2759 5.15699 20.116 5.58231 20.116C6.00762 20.116 6.41739 20.2759 6.73031 20.564L7.21331 21.006C7.38127 21.1628 7.6025 21.2501 7.83231 21.2501C8.06211 21.2501 8.28334 21.1628 8.45131 21.006C8.89575 20.5965 9.47797 20.3692 10.0823 20.3692C10.6866 20.3692 11.2689 20.5965 11.7133 21.006C11.8813 21.1628 12.1025 21.2501 12.3323 21.2501C12.5621 21.2501 12.7833 21.1628 12.9513 21.006C13.3957 20.5965 13.978 20.3692 14.5823 20.3692C15.1866 20.3692 15.7689 20.5965 16.2133 21.006C16.3813 21.1628 16.6025 21.2501 16.8323 21.2501C17.0621 21.2501 17.2833 21.1628 17.4513 21.006L17.9343 20.564C18.2472 20.2759 18.657 20.116 19.0823 20.116C19.5076 20.116 19.9174 20.2759 20.2303 20.564C20.2733 20.604 20.3103 20.616 20.3383 20.619C20.3756 20.6234 20.4134 20.6171 20.4473 20.601C20.5223 20.566 20.5823 20.493 20.5823 20.374V6.37C20.5823 5.118 20.5723 4.672 20.4623 4.333C20.3545 3.99686 20.1707 3.69009 19.9252 3.43653C19.6796 3.18297 19.3788 2.98944 19.0463 2.871C18.7293 2.761 18.3083 2.751 17.0873 2.751L7.57731 2.75ZM6.58331 7.5C6.58331 7.30109 6.66232 7.11032 6.80298 6.96967C6.94363 6.82902 7.13439 6.75 7.33331 6.75H7.83331C8.03222 6.75 8.22298 6.82902 8.36364 6.96967C8.50429 7.11032 8.58331 7.30109 8.58331 7.5C8.58331 7.69891 8.50429 7.88968 8.36364 8.03033C8.22298 8.17098 8.03222 8.25 7.83331 8.25H7.33331C7.13439 8.25 6.94363 8.17098 6.80298 8.03033C6.66232 7.88968 6.58331 7.69891 6.58331 7.5ZM10.0833 7.5C10.0833 7.30109 10.1623 7.11032 10.303 6.96967C10.4436 6.82902 10.6344 6.75 10.8333 6.75H17.3333C17.5322 6.75 17.723 6.82902 17.8636 6.96967C18.0043 7.11032 18.0833 7.30109 18.0833 7.5C18.0833 7.69891 18.0043 7.88968 17.8636 8.03033C17.723 8.17098 17.5322 8.25 17.3333 8.25H10.8333C10.6344 8.25 10.4436 8.17098 10.303 8.03033C10.1623 7.88968 10.0833 7.69891 10.0833 7.5ZM6.58331 11C6.58331 10.8011 6.66232 10.6103 6.80298 10.4697C6.94363 10.329 7.13439 10.25 7.33331 10.25H7.83331C8.03222 10.25 8.22298 10.329 8.36364 10.4697C8.50429 10.6103 8.58331 10.8011 8.58331 11C8.58331 11.1989 8.50429 11.3897 8.36364 11.5303C8.22298 11.671 8.03222 11.75 7.83331 11.75H7.33331C7.13439 11.75 6.94363 11.671 6.80298 11.5303C6.66232 11.3897 6.58331 11.1989 6.58331 11ZM10.0833 11C10.0833 10.8011 10.1623 10.6103 10.303 10.4697C10.4436 10.329 10.6344 10.25 10.8333 10.25H17.3333C17.5322 10.25 17.723 10.329 17.8636 10.4697C18.0043 10.6103 18.0833 10.8011 18.0833 11C18.0833 11.1989 18.0043 11.3897 17.8636 11.5303C17.723 11.671 17.5322 11.75 17.3333 11.75H10.8333C10.6344 11.75 10.4436 11.671 10.303 11.5303C10.1623 11.3897 10.0833 11.1989 10.0833 11ZM6.58331 14.5C6.58331 14.3011 6.66232 14.1103 6.80298 13.9697C6.94363 13.829 7.13439 13.75 7.33331 13.75H7.83331C8.03222 13.75 8.22298 13.829 8.36364 13.9697C8.50429 14.1103 8.58331 14.3011 8.58331 14.5C8.58331 14.6989 8.50429 14.8897 8.36364 15.0303C8.22298 15.171 8.03222 15.25 7.83331 15.25H7.33331C7.13439 15.25 6.94363 15.171 6.80298 15.0303C6.66232 14.8897 6.58331 14.6989 6.58331 14.5ZM10.0833 14.5C10.0833 14.3011 10.1623 14.1103 10.303 13.9697C10.4436 13.829 10.6344 13.75 10.8333 13.75H17.3333C17.5322 13.75 17.723 13.829 17.8636 13.9697C18.0043 14.1103 18.0833 14.3011 18.0833 14.5C18.0833 14.6989 18.0043 14.8897 17.8636 15.0303C17.723 15.171 17.5322 15.25 17.3333 15.25H10.8333C10.6344 15.25 10.4436 15.171 10.303 15.0303C10.1623 14.8897 10.0833 14.6989 10.0833 14.5Z" fill="#4D7465"/>
</svg>
