<svg width="24" height="24" viewBox="0 0 24 24" fill="none" xmlns="http://www.w3.org/2000/svg">
<path d="M6 22C5.45 22 4.97933 21.8043 4.588 21.413C4.19667 21.0217 4.00067 20.5507 4 20V10C4 9.45 4.196 8.97933 4.588 8.588C4.98 8.19667 5.45067 8.00067 6 8H7V6C7 4.61667 7.48767 3.43767 8.463 2.463C9.43833 1.48833 10.6173 1.00067 12 1C13.3833 1 14.5627 1.48767 15.538 2.463C16.5133 3.43833 17.0007 4.61733 17 6V8H18C18.55 8 19.021 8.196 19.413 8.588C19.805 8.98 20.0007 9.45067 20 10V20C20 20.55 19.8043 21.021 19.413 21.413C19.0217 21.805 18.5507 22.0007 18 22H6ZM12 17C12.55 17 13.021 16.8043 13.413 16.413C13.805 16.0217 14.0007 15.5507 14 15C14 14.45 13.8043 13.9793 13.413 13.588C13.0217 13.1967 12.5507 13.0007 12 13C11.45 13 10.9793 13.196 10.588 13.588C10.1967 13.98 10.0007 14.4507 10 15C10 15.55 10.196 16.021 10.588 16.413C10.98 16.805 11.4507 17.0007 12 17ZM9 8H15V6C15 5.16667 14.7083 4.45833 14.125 3.875C13.5417 3.29167 12.8333 3 12 3C11.1667 3 10.4583 3.29167 9.875 3.875C9.29167 4.45833 9 5.16667 9 6V8Z" fill="#61927F"/>
<path fill-rule="evenodd" clip-rule="evenodd" d="M12.0195 3C9.76099 3 7.70349 3.746 6.48599 4.3555C6.37599 4.4105 6.27349 4.4645 6.17799 4.5165C5.98899 4.6195 5.82799 4.7155 5.69999 4.8L7.08499 6.839L7.73699 7.0985C10.285 8.384 13.702 8.384 16.2505 7.0985L16.9905 6.7145L18.3 4.8C18.0288 4.62303 17.7467 4.46322 17.4555 4.3215C16.244 3.7185 14.2355 3 12.02 3M8.79899 5.308C8.30855 5.21623 7.82415 5.09467 7.34849 4.944C8.48899 4.4375 10.1885 3.9 12.02 3.9C13.2885 3.9 14.488 4.158 15.48 4.485C14.3175 4.6485 13.077 4.926 11.895 5.2675C10.965 5.5365 9.87799 5.5075 8.79899 5.308ZM16.779 7.84L16.656 7.902C13.853 9.316 10.135 9.316 7.33199 7.902L7.21549 7.843C3.00399 12.4635 -0.211009 20.9985 12.0195 20.9985C24.25 20.9985 20.957 12.305 16.779 7.84ZM11.5 12C11.2348 12 10.9804 12.1054 10.7929 12.2929C10.6053 12.4804 10.5 12.7348 10.5 13C10.5 13.2652 10.6053 13.5196 10.7929 13.7071C10.9804 13.8946 11.2348 14 11.5 14V12ZM12.5 11V10.5H11.5V11C10.9696 11 10.4609 11.2107 10.0858 11.5858C9.71071 11.9609 9.49999 12.4696 9.49999 13C9.49999 13.5304 9.71071 14.0391 10.0858 14.4142C10.4609 14.7893 10.9696 15 11.5 15V17C11.065 17 10.6945 16.7225 10.5565 16.3335C10.536 16.2699 10.503 16.211 10.4594 16.1603C10.4157 16.1097 10.3624 16.0683 10.3025 16.0386C10.2426 16.0089 10.1773 15.9916 10.1106 15.9875C10.0438 15.9835 9.97698 15.9929 9.91395 16.0152C9.85091 16.0375 9.79298 16.0721 9.74359 16.1172C9.69419 16.1622 9.65433 16.2167 9.62636 16.2775C9.5984 16.3382 9.58289 16.4039 9.58077 16.4707C9.57864 16.5376 9.58994 16.6041 9.61399 16.6665C9.75191 17.0565 10.0073 17.3941 10.3451 17.6329C10.6829 17.8718 11.0863 18 11.5 18V18.5H12.5V18C13.0304 18 13.5391 17.7893 13.9142 17.4142C14.2893 17.0391 14.5 16.5304 14.5 16C14.5 15.4696 14.2893 14.9609 13.9142 14.5858C13.5391 14.2107 13.0304 14 12.5 14V12C12.935 12 13.3055 12.2775 13.4435 12.6665C13.464 12.7301 13.497 12.789 13.5406 12.8397C13.5843 12.8903 13.6376 12.9317 13.6975 12.9614C13.7574 12.9911 13.8227 13.0084 13.8894 13.0125C13.9561 13.0165 14.023 13.0071 14.086 12.9848C14.1491 12.9625 14.207 12.9279 14.2564 12.8828C14.3058 12.8378 14.3457 12.7833 14.3736 12.7225C14.4016 12.6618 14.4171 12.5961 14.4192 12.5293C14.4213 12.4624 14.41 12.3959 14.386 12.3335C14.2481 11.9435 13.9926 11.6059 13.6549 11.3671C13.3171 11.1282 12.9136 11 12.5 11ZM12.5 15V17C12.7652 17 13.0196 16.8946 13.2071 16.7071C13.3946 16.5196 13.5 16.2652 13.5 16C13.5 15.7348 13.3946 15.4804 13.2071 15.2929C13.0196 15.1054 12.7652 15 12.5 15Z" fill="#E0EBE7"/>
</svg>
